<svg width="13" height="14" viewBox="0 0 13 14" fill="none" xmlns="http://www.w3.org/2000/svg">
  <path d="M13 0.835442C13 0.43606 12.6811 0.112305 12.2877 0.112305H0.712361C0.565679 0.112305 0.422537 0.158304 0.302568 0.243963C-0.0192094 0.473721 -0.0965735 0.924829 0.129742 1.2515L4.32667 7.30906L4.33846 11.716C4.33919 11.9911 4.41976 12.2598 4.57005 12.4887C4.9925 13.1321 5.84868 13.3059 6.48238 12.877L7.98138 11.8625C8.37966 11.593 8.61799 11.1383 8.61576 10.6524L8.60053 7.33571L12.8678 1.25506C12.9538 1.13252 13 0.985845 13 0.835442ZM7.17382 6.87616L7.19118 10.6591L5.7629 11.6258L5.75011 6.84958L2.08428 1.55858H10.9056L7.17382 6.87616Z" fill="white"/>
  </svg>
  