<svg width="20" height="20" viewBox="0 0 20 20" fill="none" xmlns="http://www.w3.org/2000/svg">
  <path d="M17.6562 20H2.34375C1.05141 20 0 18.9486 0 17.6562V2.34375C0 1.05141 1.05141 0 2.34375 0H17.6562C18.9486 0 20 1.05141 20 2.34375V17.6562C20 18.9486 18.9486 20 17.6562 20ZM2.34375 1.5625C1.91297 1.5625 1.5625 1.91297 1.5625 2.34375V17.6562C1.5625 18.087 1.91297 18.4375 2.34375 18.4375H17.6562C18.087 18.4375 18.4375 18.087 18.4375 17.6562V2.34375C18.4375 1.91297 18.087 1.5625 17.6562 1.5625H2.34375ZM14.5312 14.5312H7.42188V3.90625H5.85938V16.0938H14.5312V14.5312Z" fill="black"/>
  </svg>
  