<svg xmlns="http://www.w3.org/2000/svg" width="60" height="60" fill="none" viewBox="0 0 60 60"><g clip-path="url(#clip0_1302_1978)"><path fill="#000" d="M49.9908 22.0552C47.2178 11.0082 36.0146 4.3009 24.9676 7.07396C16.3346 9.24111 10.0661 16.7024 9.42027 25.5797C3.29051 26.5906 -0.859226 32.3791 0.151639 38.5089C1.05025 43.9583 5.77216 47.9492 11.2951 47.9273H20.669V44.1777H11.2951C7.15341 44.1777 3.79589 40.8202 3.79589 36.6785C3.79589 32.5369 7.15341 29.1793 11.2951 29.1793C12.3305 29.1793 13.1699 28.34 13.1699 27.3045C13.1605 17.9857 20.7074 10.4237 30.0261 10.4145C38.0929 10.4064 45.037 16.1093 46.5974 24.0236C46.7515 24.8139 47.3928 25.4175 48.191 25.5235C53.3165 26.2534 56.8796 31 56.1499 36.1253C55.4945 40.7277 51.5649 44.1545 46.9162 44.1777H39.417V47.9273H46.9162C54.1641 47.9054 60.0219 42.012 59.9999 34.764C59.9816 28.7307 55.8519 23.487 49.9908 22.0552Z"/><path fill="#000" d="M28.7118 29.7232L21.2126 37.2224L23.8561 39.8658L28.1681 35.5726V53.5518H31.9177V35.5726L36.211 39.8658L38.8545 37.2224L31.3553 29.7232C30.624 28.9962 29.4431 28.9962 28.7118 29.7232Z"/></g><defs><clipPath id="clip0_1302_1978"><rect width="60" height="60" fill="#fff"/></clipPath></defs></svg>